<svg xmlns="http://www.w3.org/2000/svg" viewBox="0 0 64 64">
  <rect width="64" height="64" rx="18" fill="#fff8f4"/>
  <path d="M12 42c4 4 8 6 12 6s8-2 12-6c4 4 8 6 12 6 2 0 4-.4 6-1.2V52H10v-5.2c2 .8 4 1.2 6 1.2 4 0 8-2 12-6Z" fill="#f59b7c"/>
  <path d="M32 12c-1.7 0-3 1.3-3 3v4.3l-11.5 4.6A3.5 3.5 0 0 0 15 27.1v10.2c0 1.4.9 2.7 2.2 3.2l12.4 4.8c1.5.6 3.2.6 4.8 0l12.4-4.8a3.5 3.5 0 0 0 2.2-3.2V27.1c0-1.4-.9-2.7-2.2-3.2L35 19v-4c0-1.7-1.3-3-3-3Zm-11 15.5L32 23l11 4.5L32 32l-11-4.5Zm0 4.8L32 36.8 43 32.3v4.5L32 41.3 21 36.8v-4.5Z" fill="#924a31"/>
</svg>
